<?xml version="1.0" encoding="UTF-8" standalone="no"?>
<svg
   xmlns:dc="http://purl.org/dc/elements/1.1/"
   xmlns:cc="http://creativecommons.org/ns#"
   xmlns:rdf="http://www.w3.org/1999/02/22-rdf-syntax-ns#"
   xmlns:svg="http://www.w3.org/2000/svg"
   xmlns="http://www.w3.org/2000/svg"
   xmlns:xlink="http://www.w3.org/1999/xlink"
   version="1.1"
   id="svg4218"
   viewBox="0 0 16 16"
   height="16"
   width="16">
  <defs
     id="defs4220">
    <linearGradient
       y2="331.10257"
       x2="755.72821"
       y1="294.43591"
       x1="755.72821"
       gradientUnits="userSpaceOnUse"
       id="linearGradient4213"
       xlink:href="#linearGradient4191" />
    <linearGradient
       id="linearGradient4191">
      <stop
         id="stop4193"
         offset="0"
         style="stop-color:white;stop-opacity:1" />
      <stop
         id="stop4195"
         offset="1"
         style="stop-color:#666;stop-opacity:1" />
    </linearGradient>
    <linearGradient
       y2="324.43591"
       x2="752.39484"
       y1="301.10257"
       x1="752.39484"
       gradientUnits="userSpaceOnUse"
       id="linearGradient4215"
       xlink:href="#linearGradient4196" />
    <linearGradient
       id="linearGradient4196">
      <stop
         id="stop4198"
         offset="0"
         style="stop-color:#666;stop-opacity:1" />
      <stop
         id="stop4200"
         offset="1"
         style="stop-color:#2d2d2d;stop-opacity:1" />
    </linearGradient>
  </defs>
  <metadata
     id="metadata4223">
    <rdf:RDF>
      <cc:Work
         rdf:about="">
        <dc:format>image/svg+xml</dc:format>
        <dc:type
           rdf:resource="http://purl.org/dc/dcmitype/StillImage" />
        <dc:title></dc:title>
      </cc:Work>
    </rdf:RDF>
  </metadata>
  <g
     transform="translate(0,-1036.3622)"
     id="layer1">
    <g
       id="g4207"
       transform="matrix(0.45,0,0,0.45,-331.3,906.6622)">
      <path
         id="path4209"
         d="m 754,291 a 15,15 0 0 0 -1.97266,0.14844 l -1.04687,2.73437 a 12.5,12.5 0 0 0 -3.41211,1.41407 l -2.68359,-1.19727 a 15,15 0 0 0 -2.78125,2.79297 l 1.19531,2.67773 a 12.5,12.5 0 0 0 -1.41211,3.40821 l -2.74024,1.05078 A 15,15 0 0 0 739,306 a 15,15 0 0 0 0.14844,1.97266 l 2.73437,1.04687 a 12.5,12.5 0 0 0 1.41407,3.41211 l -1.19727,2.68359 a 15,15 0 0 0 2.79297,2.78125 l 2.67773,-1.19531 a 12.5,12.5 0 0 0 3.40821,1.41211 l 1.05078,2.74024 A 15,15 0 0 0 754,321 a 15,15 0 0 0 1.97266,-0.14844 l 1.04687,-2.73437 a 12.5,12.5 0 0 0 3.41211,-1.41407 l 2.68359,1.19727 a 15,15 0 0 0 2.78125,-2.79297 l -1.19531,-2.67773 a 12.5,12.5 0 0 0 1.41211,-3.40821 l 2.74024,-1.05078 A 15,15 0 0 0 769,306 a 15,15 0 0 0 -0.14844,-1.97266 l -2.73437,-1.04687 a 12.5,12.5 0 0 0 -1.41407,-3.41211 l 1.19727,-2.68359 a 15,15 0 0 0 -2.79297,-2.78125 l -2.67773,1.19531 a 12.5,12.5 0 0 0 -3.40821,-1.41211 l -1.05078,-2.74024 A 15,15 0 0 0 754,291 Z m 0,7.5 a 7.5,7.5 0 0 1 7.5,7.5 7.5,7.5 0 0 1 -7.5,7.5 7.5,7.5 0 0 1 -7.5,-7.5 7.5,7.5 0 0 1 7.5,-7.5 z"
         style="opacity:1;fill:url(#linearGradient4213);fill-opacity:1;fill-rule:nonzero;stroke:#666;stroke-width:1.11111104;stroke-linecap:round;stroke-linejoin:round;stroke-miterlimit:4;stroke-dasharray:none;stroke-dashoffset:0;stroke-opacity:1" />
      <path
         d="m 754,297.25508 c 4.82988,-4.6e-4 8.74538,3.91504 8.74492,8.74492 4.6e-4,4.82988 -3.91504,8.74538 -8.74492,8.74492 -4.82988,4.6e-4 -8.74538,-3.91504 -8.74492,-8.74492 -4.6e-4,-4.82988 3.91504,-8.74538 8.74492,-8.74492 z m 0,-2.27266 c -6.0849,-1.5e-4 -11.01773,4.93268 -11.01758,11.01758 -1.5e-4,6.0849 4.93268,11.01773 11.01758,11.01758 6.0849,1.5e-4 11.01773,-4.93268 11.01758,-11.01758 1.5e-4,-6.0849 -4.93268,-11.01773 -11.01758,-11.01758 z"
         style="opacity:1;fill:url(#linearGradient4215);fill-opacity:1;fill-rule:nonzero;stroke:none;stroke-width:1;stroke-linecap:round;stroke-linejoin:round;stroke-miterlimit:4;stroke-dasharray:none;stroke-dashoffset:0;stroke-opacity:1"
         id="path4211" />
    </g>
  </g>
</svg>
