<?xml version="1.0" encoding="UTF-8" standalone="no"?>
<!-- Created with Inkscape (http://www.inkscape.org/) -->

<svg
   xmlns:dc="http://purl.org/dc/elements/1.1/"
   xmlns:cc="http://creativecommons.org/ns#"
   xmlns:rdf="http://www.w3.org/1999/02/22-rdf-syntax-ns#"
   xmlns:svg="http://www.w3.org/2000/svg"
   xmlns="http://www.w3.org/2000/svg"
   xmlns:sodipodi="http://sodipodi.sourceforge.net/DTD/sodipodi-0.dtd"
   xmlns:inkscape="http://www.inkscape.org/namespaces/inkscape"
   width="16"
   height="16"
   viewBox="0 0 16 16"
   id="svg4218"
   version="1.1"
   inkscape:version="0.91 r13725"
   inkscape:export-filename="/home/luya/Documents/designs/inkscape/system-config-services/22x22.png"
   inkscape:export-xdpi="90"
   inkscape:export-ydpi="90"
   sodipodi:docname="system-config-services-symbolic.svg">
  <defs
     id="defs4220" />
  <sodipodi:namedview
     id="base"
     pagecolor="#555753"
     bordercolor="#666666"
     borderopacity="1.0"
     inkscape:pageopacity="1"
     inkscape:pageshadow="2"
     inkscape:zoom="47.290528"
     inkscape:cx="9.572046"
     inkscape:cy="11"
     inkscape:document-units="px"
     inkscape:current-layer="layer1"
     showgrid="true"
     units="px"
     inkscape:window-width="1920"
     inkscape:window-height="1016"
     inkscape:window-x="0"
     inkscape:window-y="27"
     inkscape:window-maximized="1"
     inkscape:showpageshadow="false">
    <inkscape:grid
       type="xygrid"
       id="grid4792" />
  </sodipodi:namedview>
  <metadata
     id="metadata4223">
    <rdf:RDF>
      <cc:Work
         rdf:about="">
        <dc:format>image/svg+xml</dc:format>
        <dc:type
           rdf:resource="http://purl.org/dc/dcmitype/StillImage" />
        <dc:title></dc:title>
      </cc:Work>
    </rdf:RDF>
  </metadata>
  <g
     inkscape:label="Layer 1"
     inkscape:groupmode="layer"
     id="layer1"
     transform="translate(0,-1036.3622)">
    <path
       style="opacity:1;fill:#bebebe;fill-opacity:1;fill-rule:nonzero;stroke:none;stroke-width:1.11111104;stroke-linecap:round;stroke-linejoin:round;stroke-miterlimit:4;stroke-dasharray:none;stroke-dashoffset:0;stroke-opacity:1"
       d="M 8 1 A 7.0000001 7.0000001 0 0 0 7.0800781 1.0683594 L 6.5917969 2.3457031 A 5.8333334 5.8333334 0 0 0 4.9980469 3.0058594 L 3.7460938 2.4453125 A 7.0000001 7.0000001 0 0 0 2.4492188 3.75 L 3.0058594 5 A 5.8333334 5.8333334 0 0 0 2.3476562 6.5898438 L 1.0683594 7.0800781 A 7.0000001 7.0000001 0 0 0 1 8 A 7.0000001 7.0000001 0 0 0 1.0683594 8.9199219 L 2.3457031 9.4082031 A 5.8333334 5.8333334 0 0 0 3.0058594 11.001953 L 2.4472656 12.253906 A 7.0000001 7.0000001 0 0 0 3.75 13.550781 L 5 12.994141 A 5.8333334 5.8333334 0 0 0 6.5898438 13.652344 L 7.0800781 14.931641 A 7.0000001 7.0000001 0 0 0 8 15 A 7.0000001 7.0000001 0 0 0 8.9199219 14.929688 L 9.4082031 13.654297 A 5.8333334 5.8333334 0 0 0 11.001953 12.994141 L 12.253906 13.552734 A 7.0000001 7.0000001 0 0 0 13.550781 12.25 L 12.994141 11 A 5.8333334 5.8333334 0 0 0 13.652344 9.4101562 L 14.931641 8.9199219 A 7.0000001 7.0000001 0 0 0 15 8 A 7.0000001 7.0000001 0 0 0 14.931641 7.078125 L 13.654297 6.5898438 A 5.8333334 5.8333334 0 0 0 12.994141 4.9980469 L 13.552734 3.7460938 A 7.0000001 7.0000001 0 0 0 12.25 2.4472656 L 11 3.0058594 A 5.8333334 5.8333334 0 0 0 9.4101562 2.3476562 L 8.9199219 1.0683594 A 7.0000001 7.0000001 0 0 0 8 1 z M 8 2.859375 C 10.83962 2.859275 13.140695 5.1604 13.140625 8 C 13.140695 10.8396 10.83962 13.140725 8 13.140625 C 5.16038 13.140725 2.859305 10.8396 2.859375 8 C 2.859305 5.1604 5.16038 2.859275 8 2.859375 z M 8 3.9199219 C 5.746056 3.9197219 3.9197072 5.7461 3.9199219 8 C 3.9197072 10.2539 5.746056 12.080278 8 12.080078 C 10.253944 12.080278 12.080293 10.2539 12.080078 8 C 12.080293 5.7461 10.253944 3.9197219 8 3.9199219 z M 8 4.5 A 3.5 3.5 0 0 1 11.5 8 A 3.5 3.5 0 0 1 8 11.5 A 3.5 3.5 0 0 1 4.5 8 A 3.5 3.5 0 0 1 8 4.5 z "
       transform="translate(0,1036.3622)"
       id="path4209" />
  </g>
</svg>
